<?xml version="1.0" encoding="UTF-8"?>
<svg width="28px" height="28px" viewBox="0 0 28 28" version="1.1" xmlns="http://www.w3.org/2000/svg" xmlns:xlink="http://www.w3.org/1999/xlink">
    <!-- Generator: Sketch 61 (89581) - https://sketch.com -->
    <title>ribbon</title>
    <desc>Created with Sketch.</desc>
    <g id="Achievements" stroke="none" stroke-width="1" fill="none" fill-rule="evenodd">
        <g transform="translate(-953.000000, -1315.000000)" fill="#FFFFFF" fill-rule="nonzero" id="Locked">
            <g transform="translate(881.000000, 283.000000)">
                <g id="badge-3rd" transform="translate(40.000000, 1002.000000)">
                    <g id="icon-starter" transform="translate(23.000000, 21.000000)">
                        <g id="icon">
                            <g id="ribbon" transform="translate(9.000000, 9.000000)">
                                <path d="M13.5,0 C18.7370909,0 23,4.26118182 23,9.5 C23,14.7388182 18.7370909,19 13.5,19 C8.26118182,19 4,14.7388182 4,9.5 C4,4.26118182 8.26118182,0 13.5,0 Z M13.442,4.404 C12.406,4.404 12.406,4.404 11.538,4.936 C10.7664444,5.40888889 10.7664444,5.40888889 10.315679,6.25787654 L10.208,6.476 L11.832,7.428 C12.364,6.28 12.364,6.28 13.47,6.28 C14.03,6.28 14.03,6.28 14.387,6.63 C14.744,6.98 14.744,6.98 14.744,7.554 C14.744,8.27769231 14.744,8.27769231 13.7896805,9.33539645 L13.624,9.514 L10.278,12.958 L10.278,14.4 L16.83,14.4 L16.83,12.538 L13.148,12.538 L15.066,10.62 C16.676,9.01 16.676,9.01 16.676,7.484 C16.676,6.07 16.676,6.07 15.724,5.237 C14.772,4.404 14.772,4.404 13.442,4.404 Z" id="Shape"></path>
                                <path d="M4.14608182,15 L0.116335592,22.178035 C-0.0600094558,22.4933168 -0.0338195973,22.8856277 0.180937243,23.1722475 C0.395694083,23.4588673 0.75711413,23.5878462 1.09932828,23.491112 L6.22555659,22.0777181 L7.58917523,27.3371917 C7.67996674,27.6865096 7.96805518,27.9462588 8.31725329,27.9946259 C8.35566509,27.9982086 8.39582287,28 8.43248867,28 C8.741529,28 9.03136344,27.8316109 9.18850259,27.5521565 L13,20.7843461 C9.21294646,20.4547334 5.95842004,18.2101419 4.14608182,15 Z" id="Path"></path>
                                <path d="M27.8845438,22.178035 L23.8533227,15 C22.0428523,18.2101419 18.7867989,20.4547334 15,20.7843461 L18.8112411,27.5521565 C18.9683697,27.8316109 19.2581846,28 19.5672041,28 C19.6038675,28 19.6440226,27.9982086 19.6806859,27.9928345 C20.0316064,27.9444674 20.3179296,27.6847182 20.4104609,27.3354003 L21.7739878,22.0759267 L26.8998714,23.4893207 C27.2420625,23.5860548 27.6017124,23.4570759 27.8182006,23.1704561 C28.0346889,22.8856277 28.0591311,22.4933168 27.8845438,22.178035 Z" id="Path"></path>
                            </g>
                        </g>
                    </g>
                </g>
            </g>
        </g>
    </g>
</svg>