<?xml version="1.0" encoding="UTF-8"?>
<svg width="32px" height="8px" viewBox="0 0 32 8" version="1.1" xmlns="http://www.w3.org/2000/svg" xmlns:xlink="http://www.w3.org/1999/xlink">
    <!-- Generator: Sketch 61 (89581) - https://sketch.com -->
    <title>activities</title>
    <desc>Created with Sketch.</desc>
    <g id="Achievements" stroke="none" stroke-width="1" fill="none" fill-rule="evenodd">
        <g transform="translate(-951.000000, -940.000000)" fill="#FFFFFF" id="Locked">
            <g transform="translate(881.000000, 283.000000)">
                <g id="badge-3-different" transform="translate(40.000000, 618.000000)">
                    <g id="icon-starter" transform="translate(23.000000, 21.000000)">
                        <g id="icon">
                            <g id="activities" transform="translate(7.000000, 18.000000)">
                                <path d="M7.48037755,2.83382428 C7.43099554,2.6753513 7.29629653,2.56315433 7.13756455,2.54816686 L4.97253825,2.34305959 L4.11690768,0.252696947 C4.05373533,0.099120258 3.90999535,8.8817842e-16 3.7500045,8.8817842e-16 C3.59001366,8.8817842e-16 3.44621644,0.099120258 3.38344465,0.252696947 L2.52781408,2.34305959 L0.362444456,2.54816686 C0.203712475,2.56345288 0.069299571,2.67564985 0.0196314552,2.83382428 C-0.0297505576,2.99229728 0.01585484,3.166116 0.135905201,3.27598424 L1.7724925,4.77347638 L1.28994502,6.99126229 C1.25463946,7.15433303 1.31529406,7.32295689 1.4449576,7.4207635 C1.51465319,7.47360773 1.5965369,7.5 1.67870674,7.5 C1.74931787,7.5 1.81998621,7.48041479 1.88310133,7.44100553 L3.7500045,6.27616337 L5.61656434,7.44100553 C5.75349498,7.52639227 5.92567397,7.51857012 6.05505139,7.4207635 C6.18471494,7.32295689 6.24536955,7.15433303 6.21006399,6.99126229 L5.72751651,4.77347638 L7.36410381,3.27598424 C7.48409693,3.166116 7.52975956,2.99265555 7.48037755,2.83382428 Z" id="Path" fill-rule="nonzero"></path>
                                <circle id="Oval" cx="15" cy="4" r="4"></circle>
                                <polygon id="Rectangle" points="24 2.84217094e-14 32 0 32 8 24 8"></polygon>
                            </g>
                        </g>
                    </g>
                </g>
            </g>
        </g>
    </g>
</svg>