<?xml version="1.0" encoding="UTF-8"?>
<svg width="28px" height="28px" viewBox="0 0 28 28" version="1.1" xmlns="http://www.w3.org/2000/svg" xmlns:xlink="http://www.w3.org/1999/xlink">
    <!-- Generator: Sketch 61 (89581) - https://sketch.com -->
    <title>ribbon</title>
    <desc>Created with Sketch.</desc>
    <g id="Achievements" stroke="none" stroke-width="1" fill="none" fill-rule="evenodd">
        <g transform="translate(-953.000000, -1443.000000)" fill="#FFFFFF" fill-rule="nonzero" id="Locked">
            <g transform="translate(881.000000, 283.000000)">
                <g id="badge-2nd" transform="translate(40.000000, 1130.000000)">
                    <g id="icon-starter" transform="translate(23.000000, 21.000000)">
                        <g id="icon">
                            <g id="ribbon" transform="translate(9.000000, 9.000000)">
                                <path d="M13.5,0 C18.7370909,0 23,4.26118182 23,9.5 C23,14.7388182 18.7370909,19 13.5,19 C8.26118182,19 4,14.7388182 4,9.5 C4,4.26118182 8.26118182,0 13.5,0 Z M16.676,4.6 L10.516,4.6 L10.516,6.406 L14.352,6.406 L12.42,8.926 L13.162,10.046 L13.582,10.046 C14.324,10.046 14.324,10.046 14.737,10.41 C15.15,10.774 15.15,10.774 15.15,11.376 C15.15,11.992 15.15,11.992 14.737,12.349 C14.324,12.706 14.324,12.706 13.582,12.706 C12.3276,12.706 12.3276,12.706 11.9268889,11.71816 L11.874,11.572 L10.222,12.524 C10.628,13.546 10.628,13.546 11.531,14.071 C12.434,14.596 12.434,14.596 13.582,14.596 C15.052,14.596 15.052,14.596 16.067,13.742 C17.082,12.888 17.082,12.888 17.082,11.376 C17.082,10.34 17.082,10.34 16.459,9.605 C15.913875,8.961875 15.913875,8.961875 15.0847031,8.65639062 L14.842,8.576 L16.676,6.196 L16.676,4.6 Z" id="Shape"></path>
                                <path d="M4.14608182,15 L0.116335592,22.178035 C-0.0600094558,22.4933168 -0.0338195973,22.8856277 0.180937243,23.1722475 C0.395694083,23.4588673 0.75711413,23.5878462 1.09932828,23.491112 L6.22555659,22.0777181 L7.58917523,27.3371917 C7.67996674,27.6865096 7.96805518,27.9462588 8.31725329,27.9946259 C8.35566509,27.9982086 8.39582287,28 8.43248867,28 C8.741529,28 9.03136344,27.8316109 9.18850259,27.5521565 L13,20.7843461 C9.21294646,20.4547334 5.95842004,18.2101419 4.14608182,15 Z" id="Path"></path>
                                <path d="M27.8845438,22.178035 L23.8533227,15 C22.0428523,18.2101419 18.7867989,20.4547334 15,20.7843461 L18.8112411,27.5521565 C18.9683697,27.8316109 19.2581846,28 19.5672041,28 C19.6038675,28 19.6440226,27.9982086 19.6806859,27.9928345 C20.0316064,27.9444674 20.3179296,27.6847182 20.4104609,27.3354003 L21.7739878,22.0759267 L26.8998714,23.4893207 C27.2420625,23.5860548 27.6017124,23.4570759 27.8182006,23.1704561 C28.0346889,22.8856277 28.0591311,22.4933168 27.8845438,22.178035 Z" id="Path"></path>
                            </g>
                        </g>
                    </g>
                </g>
            </g>
        </g>
    </g>
</svg>