<?xml version="1.0" encoding="UTF-8"?>
<svg width="28px" height="21px" viewBox="0 0 28 21" version="1.1" xmlns="http://www.w3.org/2000/svg" xmlns:xlink="http://www.w3.org/1999/xlink">
    <!-- Generator: Sketch 61 (89581) - https://sketch.com -->
    <title>profits</title>
    <desc>Created with Sketch.</desc>
    <g id="Achievements" stroke="none" stroke-width="1" fill="none" fill-rule="evenodd">
        <g transform="translate(-952.000000, -1062.000000)" fill="#FFFFFF" fill-rule="nonzero" id="Locked">
            <g transform="translate(881.000000, 283.000000)">
                <g id="badge-highest-jump" transform="translate(40.000000, 746.000000)">
                    <g id="icon-starter" transform="translate(23.000000, 21.000000)">
                        <g id="icon">
                            <g id="profits" transform="translate(8.000000, 12.000000)">
                                <path d="M27.0487638,18.6666667 L0.95129092,18.6666667 C0.425852394,18.6666667 0,19.0845219 0,19.6000268 C0,20.1155318 0.425852394,20.5333333 0.95129092,20.5333333 L27.0487091,20.5333333 C27.5744757,20.5333333 28,20.1155318 28,19.6000268 C28,19.0845219 27.5742023,18.6666667 27.0487638,18.6666667 Z" id="Path"></path>
                                <path d="M24.9908043,1.29838255 C24.6549782,0.884564997 24.0349479,0.812103274 23.6053515,1.13479803 L15.3344425,7.35210119 L10.0548251,3.35170116 C9.66834148,3.0584167 9.11638406,3.08433486 8.7611572,3.41210411 L3.10356526,8.63251294 C2.71050123,8.99542176 2.69734048,9.59655942 3.07463429,9.97463719 C3.26869866,10.168887 3.52754571,10.2666667 3.78707348,10.2666667 C4.03247613,10.2666667 4.27850278,10.1787086 4.4699577,10.0024651 L9.50780299,5.35411104 L14.721333,9.30420256 C15.0785453,9.5747336 15.5811499,9.5756612 15.939667,9.3064397 L24.8207356,2.63063062 C25.2500485,2.30793587 25.3263468,1.7112725 24.9908043,1.29838255 Z" id="Path"></path>
                                <path d="M24.9617585,0.734524351 C24.7908014,0.536397241 24.5481744,0.414572789 24.2874747,0.395878356 L18.7857839,0.00289989771 C18.2365975,-0.0386683899 17.774217,0.371649014 17.7358688,0.912658018 C17.6972382,1.45400589 18.1046098,1.92396475 18.645607,1.96259615 L23.1618798,2.28514573 L22.8445332,6.408878 C22.8029658,6.949887 23.2080218,7.42210501 23.7486801,7.46372978 C23.7745468,7.46570653 23.7997922,7.46666667 23.8249811,7.46666667 C24.3332214,7.46666667 24.7638616,7.07498722 24.80413,6.55984544 L25.1970999,1.451069 C25.2171494,1.19070242 25.1326591,0.932651461 24.9617585,0.734524351 Z" id="Path"></path>
                                <path d="M14,13.0666667 C13.4844802,13.0666667 13.0666667,13.477626 13.0666667,13.9846886 L13.0666667,19.6153114 C13.0666667,20.122374 13.4844802,20.5333333 14,20.5333333 C14.5155198,20.5333333 14.9333333,20.122374 14.9333333,19.6153114 L14.9333333,13.9846886 C14.9333333,13.477626 14.5155198,13.0666667 14,13.0666667 Z" id="Path"></path>
                                <path d="M18.6666667,10.2666667 C18.1511469,10.2666667 17.7333333,10.6857461 17.7333333,11.2028279 L17.7333333,19.5971721 C17.7333333,20.1142539 18.1511469,20.5333333 18.6666667,20.5333333 C19.1821865,20.5333333 19.6,20.1142539 19.6,19.5971721 L19.6,11.2028279 C19.6,10.6857461 19.1821865,10.2666667 18.6666667,10.2666667 Z" id="Path"></path>
                                <path d="M9.33333333,9.33333333 C8.81781355,9.33333333 8.4,9.74541789 8.4,10.253869 L8.4,19.6127977 C8.4,20.1212488 8.81781355,20.5333333 9.33333333,20.5333333 C9.84885312,20.5333333 10.2666667,20.1212488 10.2666667,19.6127977 L10.2666667,10.253869 C10.2666667,9.74541789 9.84885312,9.33333333 9.33333333,9.33333333 Z" id="Path"></path>
                                <path d="M4.66666667,13.0666667 C4.15114688,13.0666667 3.73333333,13.4988822 3.73333333,14.0321719 L3.73333333,19.5678281 C3.73333333,20.1011178 4.15114688,20.5333333 4.66666667,20.5333333 C5.18218645,20.5333333 5.6,20.1011178 5.6,19.5678281 L5.6,14.0321719 C5.6,13.4988822 5.18218645,13.0666667 4.66666667,13.0666667 Z" id="Path"></path>
                                <path d="M23.3333333,12.1333333 C22.8178135,12.1333333 22.4,12.5542604 22.4,13.0736218 L22.4,19.5930449 C22.4,20.1124063 22.8178135,20.5333333 23.3333333,20.5333333 C23.8491751,20.5333333 24.2666667,20.1124063 24.2666667,19.5930449 L24.2666667,13.0736758 C24.2666667,12.5543144 23.8488531,12.1333333 23.3333333,12.1333333 Z" id="Path"></path>
                            </g>
                        </g>
                    </g>
                </g>
            </g>
        </g>
    </g>
</svg>