<?xml version="1.0" encoding="UTF-8"?>
<svg width="28px" height="28px" viewBox="0 0 28 28" version="1.1" xmlns="http://www.w3.org/2000/svg" xmlns:xlink="http://www.w3.org/1999/xlink">
    <!-- Generator: Sketch 61 (89581) - https://sketch.com -->
    <title>mission</title>
    <desc>Created with Sketch.</desc>
    <g id="Achievements" stroke="none" stroke-width="1" fill="none" fill-rule="evenodd">
        <g transform="translate(-952.000000, -1808.000000)" fill="#FFFFFF" fill-rule="nonzero" id="Locked">
            <g transform="translate(881.000000, 283.000000)">
                <g id="badge-2nd" transform="translate(40.000000, 1496.000000)">
                    <g id="icon-starter" transform="translate(23.000000, 21.000000)">
                        <g id="icon">
                            <g id="mission" transform="translate(8.000000, 8.000000)">
                                <circle id="Oval" cx="14.5" cy="14.5" r="2.5"></circle>
                                <path d="M27.4895533,10.5297252 C26.8089669,9.82342495 25.7055364,9.82342495 25.02495,10.5297252 L17.8569447,17.9685505 C17.6390696,18.1946574 17.3435381,18.321729 17.0354285,18.321729 L10.9645647,18.321729 C10.6564004,18.321729 10.3609236,18.1947142 10.1430484,17.9685505 L2.97504319,10.5297252 C2.29445676,9.82342495 1.19102626,9.82342495 0.510439827,10.5297252 C-0.170146609,11.2360254 -0.170146609,12.3811455 0.510439827,13.0874457 L8.77181307,21.6609485 L8.77181307,27.9623723 L19.2282348,28 L19.2282348,21.6609485 L27.489608,13.0874457 C28.1701398,12.3811455 28.1701398,11.2360254 27.4895533,10.5297252 Z" id="Path"></path>
                                <path d="M11.0185113,5.8009424 L10.6017672,8.08075648 C10.5478514,8.37572588 10.6771376,8.67384049 10.9352072,8.84981566 C11.1932209,9.02563356 11.5353768,9.04896062 11.8178063,8.90967971 L13.9999721,7.83327994 L16.1821378,8.90967971 C16.3047754,8.97012039 16.4386989,9 16.5720637,9 C16.7458235,9 16.9187452,8.94936193 17.0647369,8.84986808 C17.3228065,8.67394533 17.4520927,8.3757783 17.3981769,8.0808089 L16.9814328,5.80099482 L18.7468545,4.18639517 C18.9753123,3.97750001 19.0575548,3.66502222 18.958942,3.38037964 C18.860385,3.09568464 18.598125,2.88820484 18.2824521,2.84522014 L15.8426638,2.5125605 L14.7514412,0.43828667 C14.6102544,0.169894402 14.3189414,0 13.9999162,0 C13.680891,0 13.389578,0.169894402 13.2483912,0.43828667 L12.1573362,2.51250808 L9.71754787,2.84516772 C9.40187496,2.88815242 9.13955916,3.09563222 9.04105804,3.38032722 C8.94244518,3.6649698 9.02468775,3.97744759 9.25314553,4.18634275 L11.0185113,5.8009424 Z" id="Path"></path>
                            </g>
                        </g>
                    </g>
                </g>
            </g>
        </g>
    </g>
</svg>