<?xml version="1.0" encoding="UTF-8"?>
<svg width="21px" height="26px" viewBox="0 0 21 26" version="1.1" xmlns="http://www.w3.org/2000/svg" xmlns:xlink="http://www.w3.org/1999/xlink">
    <!-- Generator: Sketch 61 (89581) - https://sketch.com -->
    <title>yoga</title>
    <desc>Created with Sketch.</desc>
    <g id="Achievements" stroke="none" stroke-width="1" fill="none" fill-rule="evenodd">
        <g transform="translate(-956.000000, -1700.000000)" fill="#FFFFFF" fill-rule="nonzero" id="yoga">
            <g transform="translate(956.000000, 1700.000000)">
                <path d="M19.4066274,20.1093903 L19.4066274,13.1371763 L16.7328894,10.5505954 L13.0422215,10.5505954 L13.0422215,10.2458601 C14.271343,9.44994293 15.0823268,8.09473675 15.0823268,6.55957541 L15.0823268,3.78819599 C15.4090018,3.29981046 15.5995664,2.71865115 15.5995664,2.09494973 L15.5995664,0 L9.14932384,0 C7.36734799,0 5.91762155,1.40244192 5.91762155,3.12629654 L5.91762155,6.55952548 C5.91762155,8.09468682 6.72860535,9.44994293 7.95772685,10.2458101 L7.95772685,10.5505455 L4.26705894,10.5505455 L1.59332095,13.1371264 L1.59332095,20.1093404 C0.646433364,20.5965275 0,21.5606658 0,22.6684586 C0,24.2657853 1.34324352,25.5652174 2.99442552,25.5652174 L18.0055745,25.5652174 C19.6567049,25.5652174 21,24.2657853 21,22.6684586 C21,21.5606658 20.353515,20.5965275 19.4066274,20.1093903 L19.4066274,20.1093903 Z M7.46603696,3.12629654 C7.46603696,2.22841814 8.22117271,1.49796196 9.14927222,1.49796196 L14.0510994,1.49796196 L14.0510994,2.0948998 C14.0510994,2.99277819 13.2959637,3.72323438 12.3678125,3.72323438 L7.46603696,3.72323438 L7.46603696,3.12629654 Z M7.46603696,6.55952548 L7.46603696,5.22119633 L12.3678125,5.22119633 C12.7788789,5.22119633 13.1718798,5.14574898 13.5339114,5.00978397 L13.5339114,6.55952548 C13.5339114,8.17787364 12.1729122,9.49448234 10.5,9.49448234 C8.82708785,9.49448234 7.46603696,8.17787364 7.46603696,6.55952548 L7.46603696,6.55952548 Z M11.4938061,10.8871376 L11.4938061,11.9274222 C11.4938061,12.457501 11.0479509,12.8888142 10.5,12.8888142 C9.95204914,12.8888142 9.50619387,12.457501 9.50619387,11.9274222 L9.50619387,10.8871376 C9.82631362,10.955894 10.1588211,10.9924443 10.5,10.9924443 C10.8411789,10.9924443 11.1736864,10.955894 11.4938061,10.8871376 L11.4938061,10.8871376 Z M9.72576649,24.0672554 L2.99442552,24.0672554 C2.19706824,24.0672554 1.54846702,23.4397592 1.54846702,22.6684586 C1.54846702,21.8971579 2.19706824,21.2696118 2.99442552,21.2696118 L9.72576649,21.2696118 L9.72576649,24.0672554 Z M5.346805,14.6733363 L5.346805,17.8872636 L8.75178074,17.8872636 C9.28884071,17.8872636 9.72576649,18.3099385 9.72576649,18.8294817 C9.72576649,19.3489749 9.28884071,19.7716498 8.75178074,19.7716498 L3.14178796,19.7716498 L3.14178796,13.7575822 L4.90843398,12.0485075 L7.96092702,12.0485075 C8.02642717,13.3485387 9.1402395,14.3867262 10.5,14.3867262 C11.8597605,14.3867262 12.9735728,13.3485387 13.039073,12.0485075 L16.091566,12.0485075 L17.858212,13.7575822 L17.858212,19.7716498 L12.2482193,19.7716498 C11.7111593,19.7716498 11.2742335,19.3489749 11.2742335,18.8294317 C11.2742335,18.3099385 11.7111593,17.8872636 12.2482193,17.8872636 L15.653195,17.8872636 L15.653195,14.6733363 L14.104728,14.6733363 L14.104728,16.3893016 L12.2482193,16.3893016 C11.5699391,16.3893016 10.9538041,16.6500968 10.5,17.0729215 C10.0461959,16.6501467 9.43006091,16.3893016 8.75178074,16.3893016 L6.89527201,16.3893016 L6.89527201,14.6733363 L5.346805,14.6733363 Z M18.0055745,24.0672554 L11.2742335,24.0672554 L11.2742335,21.2696617 L18.0055745,21.2696617 C18.8028801,21.2696617 19.451533,21.8971579 19.451533,22.6685085 C19.451533,23.4397592 18.8028801,24.0672554 18.0055745,24.0672554 L18.0055745,24.0672554 Z" id="Shape"></path>
            </g>
        </g>
    </g>
</svg>