<?xml version="1.0" encoding="UTF-8"?>
<svg width="20px" height="20px" viewBox="0 0 20 20" version="1.1" xmlns="http://www.w3.org/2000/svg" xmlns:xlink="http://www.w3.org/1999/xlink">
    <!-- Generator: Sketch 61 (89581) - https://sketch.com -->
    <title>icon</title>
    <desc>Created with Sketch.</desc>
    <g id="Achievements" stroke="none" stroke-width="1" fill="none" fill-rule="evenodd">
        <g transform="translate(-957.000000, -423.000000)" fill="#FFFFFF" fill-rule="nonzero" id="Locked">
            <g transform="translate(881.000000, 283.000000)">
                <g id="badge-starter" transform="translate(40.000000, 106.000000)">
                    <g id="icon-starter" transform="translate(23.000000, 21.000000)">
                        <g id="icon" transform="translate(12.909091, 12.909091)">
                            <path d="M10.0907357,15.8674195 C9.95926259,16.0512628 9.81290652,16.2252958 9.65158891,16.3865364 C8.86922991,17.1686059 7.8289905,17.5992739 6.72254333,17.5992739 C5.61609615,17.5992739 4.57589601,17.1686059 3.79353701,16.3865364 C2.17863307,14.7722867 2.17863307,12.1456631 3.79353701,10.5314135 C3.9560327,10.3689565 4.12940593,10.2220388 4.31200742,10.090739 C3.89917099,9.4385566 3.55050033,8.78633492 3.28343094,8.15852103 C3.27381,8.13587907 3.26485664,8.11347256 3.25543204,8.09090909 C2.7935092,8.36406445 2.36594685,8.69553166 1.97706459,9.08421199 C-0.53780941,11.5980967 -0.53780941,15.6885206 1.97706459,18.2024053 C3.19538954,19.420205 4.81524139,20.0909091 6.53825327,20.0909091 C8.26122588,20.0909091 9.88107774,19.420205 11.0994027,18.2024053 C11.4829443,17.8190225 11.8158681,17.3879621 12.0909091,16.9236255 C12.0688006,16.9144039 12.0468491,16.9056139 12.0246228,16.8961961 C11.3962773,16.6290839 10.7434672,16.2803507 10.0907357,15.8674195 L10.0907357,15.8674195 Z" id="Path"></path>
                            <path d="M14.7807728,10.1158255 C13.8445703,10.2255917 12.9863016,10.6313047 12.3437518,11.273821 L12.318337,11.2993436 C12.003531,11.6142116 11.5861442,11.7871893 11.1421526,11.7872661 C11.1421526,11.7872661 11.1419222,11.7872661 11.1418454,11.7872661 C10.6977386,11.7872661 10.2803519,11.6143651 9.96642883,11.3003799 L7.82843522,9.16231754 C7.18077941,8.51454315 7.1808178,7.46071039 7.82847361,6.81305113 L7.94802312,6.69353641 C8.55222035,6.08928472 8.94119774,5.28215737 9.06113116,4.39807849 C8.24240515,3.9053969 7.43749988,3.53353495 6.71079704,3.31772529 C5.01859948,2.81521847 4.13138396,3.24169489 3.68508883,3.68797529 C2.91093474,4.46213439 2.89269902,5.84822115 3.63368331,7.59093308 C4.28448718,9.12151981 5.48228572,10.8239329 6.91998949,12.2616405 C8.35769326,13.6993865 10.0600644,14.8972203 11.590636,15.5480651 C12.4420711,15.9101018 13.2083167,16.0909091 13.8596964,16.0909091 C14.5417505,16.0909091 15.0979206,15.892639 15.4939236,15.4966361 C15.9410249,15.0495114 16.3678174,14.160328 15.8617476,12.4634032 C15.6451456,11.7370653 15.2731371,10.933277 14.7807728,10.1158255 L14.7807728,10.1158255 Z" id="Path"></path>
                            <path d="M18.8218318,1.27707562 C18.0190461,0.492058871 16.9559704,0.0708770557 15.8276155,0.0916418284 C14.6982907,0.11226215 13.649442,0.572517851 12.8742841,1.38761643 C12.2015536,2.09499099 11.7933168,3.02225545 11.7248042,3.99859701 C11.6416695,5.18348911 11.1544654,6.27990522 10.353009,7.08583119 L10.2412405,7.19821375 C10.0408046,7.39972232 10.0408046,7.72636123 10.2412046,7.9278698 L12.2420791,9.93970543 C12.3383631,10.0365234 12.4689932,10.0909091 12.6052278,10.0909091 C12.7414265,10.0909091 12.8720207,10.0364512 12.9683047,9.9395971 L12.9930583,9.91467937 C13.824298,9.07885213 14.9514313,8.57630851 16.1668369,8.49956914 C17.184573,8.43528862 18.1425267,8.00027566 18.8642255,7.274592 C19.6630592,6.47133837 20.0986723,5.40337902 20.0908043,4.26738345 C20.0829723,3.13156844 19.6323058,2.06960379 18.8218318,1.27707562 L18.8218318,1.27707562 Z" id="Path"></path>
                        </g>
                    </g>
                </g>
            </g>
        </g>
    </g>
</svg>