<?xml version="1.0" encoding="utf-8"?>
<!-- Generator: Adobe Illustrator 19.2.0, SVG Export Plug-In . SVG Version: 6.00 Build 0)  -->
<svg version="1.1" id="Capa_1" xmlns="http://www.w3.org/2000/svg" xmlns:xlink="http://www.w3.org/1999/xlink" x="0px" y="0px"
	 viewBox="0 0 512 512" style="enable-background:new 0 0 512 512;" xml:space="preserve">
<style type="text/css">
	.st0{fill:#DFF0EE;}
	.st1{fill:#2F797A;}
</style>
<g>
	<polygon class="st0" points="157.3,87.8 133.8,128.7 130.3,160.7 107.5,188 126.7,232.3 150.6,256 121.6,284.9 150.6,331.6 
		240.4,419 290.6,468 343.3,492 409.1,482 469.8,435.7 482,386.7 491.7,305.3 498.9,194.7 469.8,154.5 482,116.5 469.8,60 
		429.8,74.1 429.8,116.5 413.9,140.1 412.7,160.7 369.6,134.8 307.9,74.1 263.1,22.8 225.7,22.8 210.5,36 157.3,37.2 	"/>
	<g>
		<path class="st1" d="M512,186.3c0.6-10-4.1-23.5-14.2-33c0.2-23.1,0.8-43.7,2-64.1c0-0.4,0-0.8,0-1.2c-0.6-24.3-20.4-43.9-45-43.9
			c-24.5,0-44.4,19.6-45,43.8l-7.7,54.5C351.9,92.3,273.4,14.1,272.5,13.2c-17.5-17.5-46.1-17.5-63.6,0c-4.1,4.1-7.3,8.8-9.5,14
			c-17.2-9.8-39.5-7.4-54.1,7.3c-15.4,15.4-17.2,38.9-6.1,56.1c-4.8,2.2-9.2,5.2-13.2,9.1c-14.8,14.8-17,37.1-7.2,54.2
			c-5.1,2.2-9.8,5.3-14,9.5c-17.5,17.5-17.5,46.1,0,63.6l24.6,24.6c-4.5,2.1-8.7,5.1-12.4,8.8c-17.6,17.6-17.6,46.1,0,63.6
			l148.5,148.5c0,0,0,0,0,0c52.6,52.6,138.3,52.6,190.9,0c54.8-54.8,54-105.5,53.6-183.4C509.8,259.7,509.6,226.4,512,186.3
			L512,186.3z M138.2,302.8c-5.9-5.9-5.9-15.4,0-21.2c5.8-5.8,15.3-5.8,21.1-0.1l42.5,42.5c5.9,5.9,15.4,5.9,21.2,0
			c5.9-5.9,5.9-15.4,0-21.2c-4.6-4.6-53-53-63.6-63.6c-5.8-5.8-5.8-15.4,0-21.2c5.8-5.8,15.4-5.8,21.2,0l63.6,63.6
			c5.9,5.9,15.4,5.9,21.2,0c5.9-5.9,5.9-15.4,0-21.2c-5-5-84.8-84.8-84.8-84.8c-5.9-5.9-5.9-15.3,0-21.2c5.8-5.8,15.4-5.8,21.2,0
			c5,5,79.9,79.9,84.9,84.8c5.9,5.9,15.4,5.9,21.2,0c5.9-5.9,5.9-15.4,0-21.2l-63.6-63.6c0,0,0,0,0,0c-5.9-5.9-5.9-15.3,0-21.2
			c5.7-5.7,14.9-5.8,20.8-0.4C417,284.6,388.4,256.1,414.3,282c8.7,8.7,23.7,3.7,25.5-8.5l12-85.1c0,0,0-0.1,0-0.1
			c1.4-5.4-0.5-7.6,4.5-12.7c9.1-9.1,24.8-3.1,25.6,9.7c-2.4,40.8-2.2,74.4-2,104c0.5,77.6,0.7,116.5-44.8,162
			c-40.9,40.9-107.6,40.9-148.5,0L138.2,302.8L138.2,302.8z M168.4,120.9l3.4,3.4c-4.5,2.2-8.7,5.1-12.4,8.8
			c-3.7,3.7-6.6,7.9-8.8,12.4l-3.4-3.4c-5.9-5.9-5.9-15.3,0-21.2C153.1,115.1,162.6,115.1,168.4,120.9z M126,205.7
			c-5.8-5.8-5.8-15.4,0-21.2c5.8-5.8,15.4-5.8,21.2,0l3.4,3.4c-4.5,2.1-8.7,5.1-12.4,8.8c-3.7,3.7-6.6,7.9-8.8,12.4L126,205.7
			L126,205.7z M166.4,55.6c5.8-5.8,15.4-5.8,21.2,0c1.7,1.7,45,44.8,47.7,47.5c-4.5,2.1-8.6,5-12.3,8.7c-3.7,3.7-6.6,7.9-8.8,12.4
			c-58.9-58.4-45.9-45.6-47.8-47.5C160.6,71,160.6,61.5,166.4,55.6L166.4,55.6z M402.1,184.9c5.3,5.3,13.7,5.9,19.7,1.3l-7.5,53.2
			C163.2-11.6,369.5,194.7,229.2,54.7c-4.9-5.8-4.7-14.6,0.9-20.2c5.8-5.8,15.4-5.8,21.2,0C252.4,35.5,357.3,140.1,402.1,184.9
			L402.1,184.9z M467.9,141.2c-14.9-0.3-29.2,6.7-38.1,19.6c0,0,9.8-69.5,9.8-69.5c1.4-5.4-0.5-7.6,4.5-12.7
			c9.1-9.1,24.8-3.1,25.6,9.7C468.8,105.3,468.2,122.5,467.9,141.2z"/>
		<path class="st1" d="M15,92c-8.3,0-15,6.7-15,15c0,8.3,6.7,15,15,15h30c8.3,0,15-6.7,15-15s-6.7-15-15-15H15L15,92z"/>
		<path class="st1" d="M86.6,55.6c5.9-5.9,5.9-15.4,0-21.2l-30-30c-5.9-5.9-15.4-5.9-21.2,0c-5.9,5.9-5.9,15.4,0,21.2l30,30
			C71.2,61.5,80.7,61.5,86.6,55.6z"/>
	</g>
</g>
</svg>
