<svg width="32px" height="32px" viewBox="0 0 32 32" version="1.1" xmlns="http://www.w3.org/2000/svg">
    <title>information</title>
    <g id="Dashboard" stroke="none" stroke-width="1" fill="none" fill-rule="evenodd">
        <g transform="translate(-703.000000, -399.000000)" fill="#0A2524" fill-rule="nonzero" id="Popup---MVP-message">
            <g>
                <g id="Group-16" transform="translate(509.000000, 378.000000)">
                    <g id="information" transform="translate(194.000000, 21.000000)">
                        <circle id="Oval" cx="15.5" cy="23.5" r="1.5"></circle>
                        <path d="M16,0 C7.15725,0 0,7.1560625 0,16 C0,24.84275 7.1560625,32 16,32 C24.84275,32 32,24.8439375 32,16 C32,7.15725 24.8439375,0 16,0 Z M16,29.5 C8.5389375,29.5 2.5,23.4620625 2.5,16 C2.5,8.5389375 8.5379375,2.5 16,2.5 C23.4610625,2.5 29.5,8.5379375 29.5,16 C29.5,23.4610625 23.4620625,29.5 16,29.5 Z" id="Shape"></path>
                        <path d="M16,8 C13.243,8 11,10.2216381 11,12.952381 C11,13.636181 11.559625,14.1904762 12.25,14.1904762 C12.940375,14.1904762 13.5,13.636181 13.5,12.952381 C13.5,11.5870095 14.6215,10.4761905 16,10.4761905 C17.3785,10.4761905 18.5,11.5870095 18.5,12.952381 C18.5,14.3177524 17.3785,15.4285714 16,15.4285714 C15.309625,15.4285714 14.75,15.9828667 14.75,16.6666667 L14.75,19.7619048 C14.75,20.4457048 15.309625,21 16,21 C16.690375,21 17.25,20.4457048 17.25,19.7619048 L17.25,17.748081 C19.404125,17.1969429 21,15.2557952 21,12.952381 C21,10.2216381 18.757,8 16,8 Z" id="Path"></path>
                    </g>
                </g>
            </g>
        </g>
    </g>
</svg>