<svg xmlns="http://www.w3.org/2000/svg" viewBox="0 0 80 80" width="80" height="80">
	<style>
		tspan { white-space:pre }
		.shp0 { fill: #ffffff } 
	</style>
	<path id="Layer" class="shp0" d="M39.8 63.18C39.27 63.91 38.69 64.61 38.05 65.25C34.93 68.36 30.8 70.08 26.39 70.08C21.99 70.08 17.85 68.36 14.74 65.25C8.31 58.82 8.31 48.36 14.74 41.94C15.39 41.29 16.08 40.7 16.8 40.18C15.16 37.58 13.77 34.99 12.71 32.49C12.67 32.4 12.64 32.31 12.6 32.22C10.76 33.31 9.06 34.63 7.51 36.17C-2.5 46.18 -2.5 62.47 7.51 72.48C12.36 77.33 18.8 80 25.66 80C32.52 80 38.96 77.33 43.81 72.48C45.33 70.95 46.66 69.24 47.75 67.39C47.67 67.35 47.58 67.32 47.49 67.28C44.99 66.22 42.39 64.83 39.8 63.18L39.8 63.18Z" />
	<path id="Layer" class="shp0" d="M62.25 40.99C58.44 41.44 54.94 43.09 52.33 45.71L52.23 45.81C50.94 47.09 49.25 47.8 47.44 47.8C47.44 47.8 47.44 47.8 47.44 47.8C45.63 47.8 43.93 47.09 42.65 45.82L33.95 37.11C31.32 34.48 31.32 30.18 33.95 27.55L34.44 27.06C36.9 24.6 38.48 21.32 38.97 17.72C35.64 15.71 32.36 14.2 29.4 13.32C22.52 11.27 18.9 13.01 17.09 14.83C13.94 17.98 13.86 23.62 16.88 30.71C19.53 36.95 24.4 43.88 30.25 49.73C36.11 55.58 43.03 60.46 49.26 63.11C52.73 64.58 55.85 65.32 58.5 65.32C61.27 65.32 63.54 64.51 65.15 62.9C66.97 61.08 68.71 57.46 66.65 50.55C65.77 47.59 64.25 44.32 62.25 40.99L62.25 40.99Z" />
	<path id="Layer" class="shp0" d="M74.47 5.13C70.98 1.74 66.36 -0.09 61.45 0C56.54 0.09 51.98 2.08 48.61 5.61C45.68 8.67 43.91 12.68 43.61 16.91C43.25 22.03 41.13 26.78 37.64 30.27L37.16 30.75C36.28 31.62 36.28 33.04 37.16 33.91L45.86 42.61C46.28 43.03 46.85 43.27 47.44 43.27C48.03 43.27 48.6 43.03 49.02 42.61L49.12 42.5C52.74 38.89 57.64 36.71 62.93 36.38C67.35 36.1 71.52 34.22 74.66 31.08C78.13 27.61 80.03 22.99 79.99 18.07C79.96 13.16 78 8.56 74.47 5.13L74.47 5.13Z" />
</svg>