<svg width="56px" height="53px" viewBox="0 0 56 53" version="1.1" xmlns="http://www.w3.org/2000/svg">
          <title>achievement star</title>
          <g id="Dashboard-WIth-Achivements" stroke="none" strokeWidth="1" fill="none" fillRule="evenodd">
            <g id="Dashboard---Achivements-popup-desktop" transform="translate(-692.000000, -251.000000)">
              <g id="background" transform="translate(420.000000, 149.000000)">
                <g id="Group-38" transform="translate(272.000000, 102.000000)">
                  <path d="M43.5307216,52.7209577 C40.5874275,52.7209577 31.6515843,47.008432 27.8551137,44.4890196 C13.8007608,52.6275247 12.4106431,52.6269784 11.9478196,52.6269784 C11.3751922,52.6269784 10.9848392,52.3898443 10.7586431,52.1904113 C9.95378039,51.4817412 9.41738824,51.0091124 13.1035059,33.7649887 C0.347035294,22.8027309 0.280054902,21.4613392 0.242721569,20.7346381 C0.216917647,20.2385144 0.388760784,19.7708031 0.724760784,19.4189268 C1.16562353,18.9566794 1.89636863,18.1895454 18.7446824,16.4197825 C25.5525255,0.46241134 26.7175451,0.279916495 27.6574667,0.131297938 C27.7436627,0.118184536 27.8529176,0.109442268 27.9385647,0.109442268 C29.1008392,0.109442268 30.3004471,0.108895876 37.0945647,16.4181433 C54.6922902,18.2053907 55.0024863,18.9195247 55.4257804,19.9002979 C55.9511922,21.1154732 56.2449176,21.7951845 43.1167608,33.412566 C47.4265647,50.3381433 45.7965255,51.6227103 45.0064863,52.2466897 C44.607349,52.5608649 44.1110353,52.7204113 43.5307216,52.7209577" id="Fill-4" fill="#D15700"></path>
                  <path d="M27.9161098,1.75020206 C29.1607373,1.55240825 35.9493647,17.9490784 35.9493647,17.9490784 C35.9493647,17.9490784 53.5525804,19.7144701 53.9127373,20.5471711 C54.2728941,21.3804186 41.2726588,32.8502742 41.2726588,32.8502742 C41.2726588,32.8502742 45.6258353,49.6654804 43.9831686,50.962068 C42.3394039,52.2581093 27.9161098,42.5558309 27.9161098,42.5558309 C27.9161098,42.5558309 12.4886588,51.5248515 11.8496,50.962068 C11.2099922,50.3998309 14.9180706,33.1568 14.9180706,33.1568 C14.9180706,33.1568 1.13767843,21.3662124 1.91948235,20.5471711 C2.70073725,19.7281299 19.8828549,17.9490784 19.8828549,17.9490784 C19.8828549,17.9490784 26.6709333,1.94690309 27.9161098,1.75020206" id="Fill-6" fill="#FFDD00"></path>
                  <path d="M28.435098,27.473834 C29.0620784,28.5453082 42.3911765,46.9947722 42.8325882,47.0821948 C43.273451,47.1701639 40.0084314,31.7083701 40.0084314,31.7083701 L28.435098,27.473834 Z" id="Fill-8" fill="#EBA418"></path>
                  <path d="M28.435098,27.473834 C28.435098,27.473834 51.9902353,20.864133 51.9902353,21.2766588 C51.9902353,21.6902773 39.9535294,32.0176278 39.9535294,32.0176278 C39.9535294,32.0176278 28.435098,27.6798237 28.435098,27.473834" id="Fill-10" fill="#F09905"></path>
                  <path d="M28.2270745,3.41123299 C28.1244078,5.27005773 28.0200941,26.2340165 28.0200941,26.2340165 C28.0200941,26.2340165 34.5567216,18.4894598 34.6604863,18.0763876 C34.7648,17.6627691 28.5389176,3.30851134 28.2270745,3.41123299" id="Fill-12" fill="#EBA418"></path>
                  <path d="M16.3059922,32.0594814 C15.6883451,33.9046464 12.466149,48.0053784 12.9959529,47.7414711 C13.5257569,47.4781103 26.633051,28.1921206 26.1048941,27.7544608 C25.5767373,27.3178938 16.3059922,32.0594814 16.3059922,32.0594814" id="Fill-14" fill="#FFFFFF"></path>
                  <path d="M3.3236549,21.1743196 C4.25698824,21.5873918 26.1046745,27.1944639 26.1046745,27.7108041 C26.1046745,28.2271443 16.709302,32.4310825 16.2942431,32.4310825 C15.8791843,32.4310825 3.2198902,21.6901134 3.3236549,21.1743196" id="Fill-16" fill="#F09905"></path>
                  <path d="M27.208149,29.1604907 C27.1038353,30.7095113 27.5946588,40.9275835 27.0758353,41.5477381 C26.5564627,42.1673464 13.0774824,49.9862124 13.3887765,49.1606144 C13.6995216,48.3339237 27.0939529,28.639233 27.208149,29.1604907" id="Fill-18" fill="#EBA418"></path>
                  <path d="M28.2270745,29.5388124 C29.6797804,30.7780289 43.0665255,49.3668227 43.0665255,49.8831629 C43.0665255,50.4000495 29.7835451,42.2413278 29.5760157,41.9320701 C29.3690353,41.6211732 28.0200941,30.0551526 28.2270745,29.5388124" id="Fill-20" fill="#FFFFFF"></path>
                  <path d="M35.9056078,19.4188175 C34.9717255,20.3476835 28.7458431,26.1312402 29.3689804,26.1312402 C29.9921176,26.1312402 50.1224706,21.0705598 49.7074118,20.7613021 C49.2923529,20.4509515 36.4244314,19.005199 35.9056078,19.4188175" id="Fill-22" fill="#FFFFFF"></path>
                  <path d="M5.19103529,20.8642969 C6.85127059,20.8642969 19.5111137,19.2120082 19.5111137,19.2120082 L26.3595843,26.7505753 C26.3595843,26.7505753 16.1566039,23.8590701 5.19103529,20.8642969" id="Fill-24" fill="#FFFFFF"></path>
                  <path d="M20.6172235,18.5010433 C21.0877333,19.0867753 26.7371451,25.4118062 26.9726745,25.235868 C27.2082039,25.0604763 27.5024784,4.03422887 27.3262431,3.74136289 C27.1494588,3.44849691 24.4422431,11.4728062 20.6172235,18.5010433" id="Fill-26" fill="#FFFFFF"></path>
                  <path d="M27.156102,21.6961784 L25.1219843,23.4834258 C25.6056706,23.9948485 26.0393961,24.4407041 26.3660627,24.7554258 L27.0682588,24.1696938 C27.0984549,23.5550031 27.1275529,22.7048175 27.156102,21.6961784 M22.9692784,21.1530649 C21.8108471,19.8745082 20.8044941,18.7336423 20.6172784,18.5008794 C20.7808863,18.2003639 20.9412,17.8976629 21.1009647,17.5944155 L27.3334353,12.377467 C27.3109255,14.2144361 27.2807294,16.1360959 27.2450431,17.9178794 C26.3847294,18.591034 24.4538275,20.0422505 22.9692784,21.1530649" id="Fill-28" fill="#FFFFFF"></path>
                  <path d="M28.7383216,35.7395938 C28.9079686,37.2509134 29.0913412,38.7600474 29.2456157,39.9118412 C30.4765176,38.5726351 32.0615373,36.8476763 33.0777725,35.7324907 C32.4013804,34.8189237 31.7546353,33.9539856 31.1660863,33.1775629 L28.7383216,35.7395938 Z M40.7437333,46.3630887 C40.3500863,45.7992124 39.9180078,45.1867072 39.4601255,44.5397794 L37.7768314,47.0411608 C38.5586353,47.504501 39.3135373,47.9476247 39.9965176,48.339934 C40.2776157,47.5859134 40.5548706,46.8493773 40.7437333,46.3630887 L40.7437333,46.3630887 Z M34.6468706,37.8617794 L30.849851,42.7935113 C30.233302,42.3990165 29.8001255,42.1121608 29.6420078,41.9892227 C30.8723608,40.4839134 32.6627137,38.2999856 33.8798902,36.8170784 C34.1318902,37.1613052 34.3893804,37.5099031 34.6468706,37.8617794 L34.6468706,37.8617794 Z" id="Fill-30" fill="#FFFFFF"></path>
                  <path d="M32.0924471,23.0690423 C31.9744078,23.244434 30.6759765,25.0917845 30.9740941,25.1191041 C31.2980157,25.1486093 31.0158196,25.1185577 49.5419373,20.8730938 C49.5419373,20.8730938 36.1189569,25.4442072 29.3687608,26.1310216 C28.6780941,26.1730938 32.0924471,23.0690423 32.0924471,23.0690423" id="Fill-32" fill="#FFFFFF"></path>
                  <path d="M5.19103529,20.8642969 C7.03738824,21.1659052 23.5447608,25.2070186 23.9856235,25.2070186 C24.4275843,25.2070186 24.6038196,24.8999464 24.0306431,24.1093175 C26.5907216,26.4806577 26.3595843,26.7505753 26.3595843,26.7505753 C25.7957412,26.9199567 5.19103529,20.8642969 5.19103529,20.8642969" id="Fill-34" fill="#FFFFFF"></path>
                  <path d="M28.5024078,32.7915371 C28.5024078,32.2058052 28.3267216,29.6874856 28.6204471,30.1557433 C28.9152706,30.624001 41.6854667,47.7266093 41.6854667,47.7266093 C38.1541725,40.9912381 28.3860157,28.1641454 28.0911922,28.6334959 C27.7969176,29.1017536 28.5024078,32.7915371 28.5024078,32.7915371" id="Fill-36" fill="#FFFFFF"></path>
                </g>
              </g>
            </g>
          </g>
</svg>