<svg id="Layer_1" data-name="Layer 1" xmlns="http://www.w3.org/2000/svg" viewBox="0 0 297.23 133.31"><defs><style>.cls-1{fill:#f15a29;}.cls-2{fill:#1a1a1a;}.cls-3{fill:#999;}</style></defs><title>vega-logo</title><path class="cls-1" d="M128.22,9.89A4.11,4.11,0,0,0,127.1,7.6a4.06,4.06,0,0,0-2.33-1.16,4.81,4.81,0,0,0-1.34,0,7,7,0,0,0-1.44.36,20.87,20.87,0,0,0-3.32,1.65l-.12.07-.12.09A297.12,297.12,0,0,1,68.76,37c-3.38-5.61-6.5-11.39-9.47-17.26q-2.75-5.43-5.36-10.94a35.21,35.21,0,0,0-3.22-5.72,11.79,11.79,0,0,0-1.27-1.48A5.56,5.56,0,0,0,47.08.14a3.86,3.86,0,0,0-2.2,0,4.1,4.1,0,0,0-1.68,1.06,6.63,6.63,0,0,0-1.33,2.11,25.34,25.34,0,0,0-1.4,6.72c-.21,2.13-.31,4.22-.36,6.31-.1,4.17,0,8.29.14,12.41.27,6.36.73,12.7,1.28,19-3,1-26.8,7.41-35.62,9.85-5.9,1.62-9,4.57-1.35,10.22,2.07,1.52,20.16,15.55,42,20.42.73,4.6,1.51,9.2,2.38,13.79.77,4,1.6,8.08,2.56,12.12A97.14,97.14,0,0,0,55,126.39a25.05,25.05,0,0,0,1.5,3.22,10.56,10.56,0,0,0,1.31,1.85,6.21,6.21,0,0,0,1.31,1.11,4.53,4.53,0,0,0,5.51-.44,6.15,6.15,0,0,0,1.13-1.33,10.65,10.65,0,0,0,1-2l1-3c1.31-3.79,2.7-7.59,4.17-11.34,2.81-7.22,5.9-14.33,9.21-21.34l.31,0a192.49,192.49,0,0,0,29.59-1.53,209.92,209.92,0,0,1-29.26.17c3.56-7.46,7.38-14.81,11.39-22,9.75,7.67,20.44,14,31.15,20.07C114,82.92,103.55,76,94.22,67.9q5.16-9.22,10.67-18.25c4.24-6.91,8.64-13.72,13.11-20.54,2.23-3.42,4.48-6.81,6.68-10.38.55-.9,1.09-1.81,1.63-2.77a21.44,21.44,0,0,0,1.57-3.33,7.43,7.43,0,0,0,.34-1.42c0-.18,0-.37,0-.56A5,5,0,0,0,128.22,9.89ZM13.5,68.78C6.8,63.71,8.17,63,15.22,60.86c6.54-2,24.09-6.58,26.78-7.42.8,8.13,1.79,16.24,2.92,24.33.36,2.54.76,5.07,1.15,7.61C30.66,79.89,17.34,71.68,13.5,68.78ZM45.83,28.52c-.23-4-.4-8.06-.36-12.05.08-7.62,1.82-9.43,6-1.88C52.73,17,54,19.42,55.3,21.82c3.11,5.67,6.37,11.28,9.9,16.73-.89.39-1.78.8-2.68,1.18Q55,43,47.28,45.78C46.7,40,46.18,34.27,45.83,28.52Zm19.59,83.37c-1.47,3.8-2.84,7.61-4.17,11.49A95,95,0,0,1,58,112.61c-1-3.89-1.83-7.83-2.63-11.79-.73-3.64-1.4-7.29-2-11a159.38,159.38,0,0,0,20.2,2.82C70.64,99,67.92,105.4,65.42,111.89Zm9.72-22.73c-.3.64-.59,1.29-.88,1.93a157.36,157.36,0,0,1-21.37-3.8c-.59-3.47-1.16-6.94-1.69-10.43C50,68.44,48.82,60,47.87,51.53q8.56-2.87,17-6.22c1.28-.52,2.55-1.07,3.83-1.61A121.86,121.86,0,0,0,84.07,61.8c1.14,1.09,2.32,2.13,3.5,3.18C83.17,72.9,79,80.95,75.14,89.17Zm31.92-56.26c-2.8,4.29-5.57,8.62-8.27,13-3.47,5.57-6.79,11.24-10,17-1-.95-1.95-1.89-2.89-2.87A119.91,119.91,0,0,1,72.07,42.25a300.63,300.63,0,0,0,29.11-14.61C108.63,23.39,115.73,19.59,107.06,32.91Z" transform="translate(0)"/><path class="cls-2" d="M133.85,38.94h8.78l6.26,29.34H149l7-29.34h8.33L153.69,79.29h-9.89Z" transform="translate(0)"/><path class="cls-2" d="M166.33,79.29V38.94h22v6.2H174.77v9.95h12.52v6.2H174.77V73.09h14v6.2Z" transform="translate(0)"/><path class="cls-2" d="M209.31,51.35c.05-3.75-.56-7-5-7C199,44.3,199,51.4,199,59.23c0,12.63,1.23,14.87,6,14.87a13.28,13.28,0,0,0,4.19-.78V64.37h-4.58v-6.2h13V78.62A77,77,0,0,1,206.29,80c-14.19,0-15.81-5.87-15.81-21.18,0-10.17.5-20.51,14.31-20.51,8.27,0,13.41,4.64,12.91,13.08Z" transform="translate(0)"/><path class="cls-2" d="M220.11,79.29l11.18-40.35h11.12l11,40.35h-8.89l-2.23-8.94H230.73l-2.29,8.94Zm16.26-32.58h-.11L232.4,64.15h8.05Z" transform="translate(0)"/><path class="cls-1" d="M259.27,79.29V38.94h8.44V79.29Z" transform="translate(0)"/><path class="cls-1" d="M297.23,38.94v6.71h-9.39V79.29H279.4V45.64H270V38.94Z" transform="translate(0)"/><path class="cls-3" d="M148.56,95.14a7.9,7.9,0,0,1-2.23-.77,1.17,1.17,0,0,1-.52-1,1.11,1.11,0,0,1,.52-1,2.45,2.45,0,0,1,1.34-.33,5.14,5.14,0,0,1,1.66.29,3.8,3.8,0,0,1,1.33.73l1-1.41a5.49,5.49,0,0,0-1.81-1,6.63,6.63,0,0,0-2.11-.35,4.5,4.5,0,0,0-2.77.83,2.78,2.78,0,0,0-1.12,2.37,2.68,2.68,0,0,0,1,2.28,4.18,4.18,0,0,0,1.13.64,15.5,15.5,0,0,0,1.86.54,5.25,5.25,0,0,1,1.72.65,1.16,1.16,0,0,1,.5,1,1.21,1.21,0,0,1-.53,1,2.38,2.38,0,0,1-1.43.39,5.28,5.28,0,0,1-3.49-1.46L143.41,100a6.74,6.74,0,0,0,4.61,1.79,4.36,4.36,0,0,0,2.87-.9A2.91,2.91,0,0,0,152,98.49a2.74,2.74,0,0,0-.86-2.2A6.13,6.13,0,0,0,148.56,95.14Z" transform="translate(0)"/><path class="cls-3" d="M168.43,90.27a5.71,5.71,0,0,0-4.15,1.64,5.82,5.82,0,0,0,0,8.18,6.07,6.07,0,0,0,8.3,0,5.82,5.82,0,0,0,0-8.18A5.71,5.71,0,0,0,168.43,90.27Zm2.78,8.57a3.88,3.88,0,0,1-5.57,0,4.14,4.14,0,0,1,0-5.69,3.89,3.89,0,0,1,5.57,0,4.14,4.14,0,0,1,0,5.69Z" transform="translate(0)"/><path class="cls-3" d="M192.39,96.68a3.58,3.58,0,0,1-.76,2.41,2.84,2.84,0,0,1-4.12,0,3.58,3.58,0,0,1-.76-2.41V90.54h-1.87v6.21a4.93,4.93,0,0,0,1.32,3.69,5.06,5.06,0,0,0,6.75,0,4.93,4.93,0,0,0,1.32-3.69V90.54h-1.87Z" transform="translate(0)"/><path class="cls-3" d="M213.72,94.14a3.27,3.27,0,0,0-1.09-2.74,6,6,0,0,0-3.63-.86h-4.12v11.08h1.87V97.9h2.46l2.65,3.73h2.38l-2.9-4A3.22,3.22,0,0,0,213.72,94.14Zm-4.65,2.06h-2.33v-4h2.38a3.9,3.9,0,0,1,2.09.41,1.69,1.69,0,0,1,.59,1.49,2,2,0,0,1-.57,1.58A3.42,3.42,0,0,1,209.07,96.2Z" transform="translate(0)"/><path class="cls-3" d="M230.75,92.11a4.2,4.2,0,0,1,1.66.3,5.21,5.21,0,0,1,1.5,1.06l1.19-1.3a5.58,5.58,0,0,0-4.3-1.9,5.86,5.86,0,0,0-4.26,1.65,5.88,5.88,0,0,0,0,8.21,5.73,5.73,0,0,0,4.17,1.62,5.55,5.55,0,0,0,4.27-1.95l-1.2-1.24a5.75,5.75,0,0,1-1.46,1,3.92,3.92,0,0,1-1.66.33,3.67,3.67,0,0,1-2.69-1.13A3.83,3.83,0,0,1,226.79,96a3.66,3.66,0,0,1,1.14-2.77A3.94,3.94,0,0,1,230.75,92.11Z" transform="translate(0)"/><rect class="cls-3" x="245.45" y="90.54" width="1.87" height="11.08"/><polygon class="cls-3" points="266.24 98.82 259.8 90.54 257.93 90.54 257.93 101.62 259.8 101.62 259.8 93.54 266.08 101.62 268.11 101.62 268.11 90.54 266.24 90.54 266.24 98.82"/><path class="cls-3" d="M286.06,96.23V98.1H287v1.18a4.8,4.8,0,0,1-2.64.68,4,4,0,0,1-2.65-6.76,3.94,3.94,0,0,1,2.82-1.09,4.94,4.94,0,0,1,1.53.21,3.87,3.87,0,0,1,1.31.77l1-1.43a5.8,5.8,0,0,0-4-1.39,5.63,5.63,0,0,0-4.08,1.65,5.88,5.88,0,0,0,0,8.21,5.66,5.66,0,0,0,4.11,1.62,5.75,5.75,0,0,0,4.49-1.73V96.23h-2.79Z" transform="translate(0)"/></svg>